# xmcd
# 
# Track frame offsets:
#     150
#     18485
#     42745
#     62860
#     84630
#     108290
#     134505
#     156182
#     181830
#     194345
# 
# Disc length: 2841
# 
# Revision: 2
# Processed by: cddbd v1.5.2PL0 Copyright (c) Steve Scherf et al.
# Submitted via: BonkEnc v1.0.8
# 
DISCID=8a0b170a
DTITLE=尾崎亜美 - 時間地図
DYEAR=1987
DGENRE=JPop
TTITLE0=moon
TTITLE1=Time Come Round
TTITLE2=Without You - 草原の人 -
TTITLE3=Rainbow Terr
TTITLE4=ジャスース　フィッ　ハーレム
TTITLE5=スーク　マシュクーク
TTITLE6=Just In Time
TTITLE7=Yesterday's Gone - 過ぎ去りし日々 -
TTITLE8=時の子守り唄
TTITLE9=YAHOOO!!
EXTD=YEAR: 1987
EXTT0=
EXTT1=
EXTT2=
EXTT3=
EXTT4=
EXTT5=
EXTT6=
EXTT7=
EXTT8=
EXTT9=
PLAYORDER=
